<?xml version="1.0" encoding="utf-8"?>
<!-- Generator: Adobe Illustrator 26.2.1, SVG Export Plug-In . SVG Version: 6.00 Build 0)  -->
<svg version="1.1" id="Layer_1" xmlns="http://www.w3.org/2000/svg" xmlns:xlink="http://www.w3.org/1999/xlink" x="0px" y="0px"
	 viewBox="0 0 500 260" style="enable-background:new 0 0 500 260;" xml:space="preserve" width="200px" height="200px">
<style type="text/css">
	.st0{fill:#005CA9;}
	.st1{fill-rule:evenodd;clip-rule:evenodd;fill:#005CA9;}
</style>
<g>
	<path class="st0" d="M90,195.8v28.3h-5.7c-1.4-1.7-3-3.6-4.6-5.5c-1.6-2-3.1-3.9-4.6-5.8c-1.4-1.9-2.6-3.6-3.5-5.2h-0.1v16.6h-6.7
		v-28.3h6.2c1.4,1.7,2.9,3.6,4.5,5.6c1.6,2,3.1,4,4.5,5.8c1.4,1.9,2.4,3.5,3.2,4.8h0.1v-16.2H90L90,195.8z"/>
	<path class="st1" d="M114.6,214.9h-12.2c0.1,1.6,0.6,2.9,1.5,3.6c0.9,0.8,2,1.2,3.2,1.2c1.1,0,2.1-0.2,3-0.4c0.9-0.3,1.7-0.6,2.3-1
		l2.2,4.1c-1.9,0.9-3.7,1.5-5.3,1.8c-1.7,0.3-3.1,0.4-4.4,0.4c-2,0-3.8-0.5-5.4-1.5c-1.6-1-3-2.3-4-4c-1-1.7-1.5-3.5-1.5-5.5
		c0-1.7,0.4-3.3,1.2-4.9c0.8-1.5,2.1-2.8,3.8-3.8c1.7-1,3.8-1.5,6.3-1.5c3.3,0,5.7,1.1,7.4,3.1C114.2,208.6,114.9,211.4,114.6,214.9
		L114.6,214.9z M102.4,211.5h5.4c0.1-1.6-0.1-2.9-0.6-3.6c-0.5-0.8-1.2-1.1-2.2-1.1c-0.9,0-1.5,0.4-2,1.2
		C102.5,208.7,102.3,209.9,102.4,211.5L102.4,211.5z"/>
	<path class="st0" d="M131.4,203.9h6.1c0.6,1.8,1.3,3.7,2,5.7c0.7,2,1.3,4.2,1.9,6.6h0.1c0.6-2.5,1.2-4.8,1.9-6.8
		c0.6-2,1.3-4,1.9-5.9l6.5,0.8l-7.5,19.8h-7.5c-0.5-1.7-1.1-3.4-1.6-5.2c-0.5-1.8-1.1-3.9-1.6-6.1h-0.1c-0.6,2.3-1.2,4.3-1.8,6.1
		c-0.6,1.8-1.2,3.6-1.8,5.2h-7l-6.7-19.4l8-1.2c0.6,1.9,1.1,3.9,1.7,5.9c0.5,2,1.1,4.3,1.6,6.8h0.1c0.7-2.4,1.3-4.6,2-6.6
		C130,207.6,130.7,205.7,131.4,203.9L131.4,203.9z"/>
	<path class="st0" d="M168.9,218.7l2,4.3c-2.2,1.1-4.4,1.6-6.5,1.5c-2.3,0-4.4-0.4-6.2-1.3c-1.8-0.8-3.2-2-4.2-3.6
		c-1-1.5-1.5-3.3-1.6-5.4c0-2.2,0.6-4.2,1.7-5.8c1.1-1.6,2.6-2.9,4.5-3.8c1.9-0.9,4-1.3,6.3-1.3c1,0,2.1,0.2,3.2,0.5
		c1.1,0.3,2.2,0.7,3.2,1.3l-2.1,4.1c-1.2-0.5-2.3-0.7-3.4-0.7c-1.4,0-2.5,0.4-3.4,1.3c-0.9,0.9-1.4,2.3-1.4,4.2
		c0,1.4,0.3,2.4,0.8,3.2c0.5,0.8,1.2,1.3,1.9,1.7c0.7,0.3,1.4,0.5,2,0.5c0.6,0,1.2-0.1,1.8-0.2C168,219.1,168.4,218.9,168.9,218.7
		L168.9,218.7z"/>
	<path class="st1" d="M185.8,212.5l-2.3,0.9c-0.9,0.3-1.6,0.8-2.1,1.5c-0.5,0.7-0.8,1.5-0.8,2.5c0,0.7,0.2,1.2,0.7,1.7
		c0.4,0.4,0.9,0.7,1.4,0.7c0.5,0,1-0.2,1.5-0.7c0.5-0.5,1-1.2,1.3-2.3C185.7,215.7,185.9,214.3,185.8,212.5L185.8,212.5z
		 M185.6,221.8l-1.1,0.6c-0.8,0.4-1.7,0.9-2.6,1.3c-0.9,0.4-1.9,0.7-2.8,0.7c-0.9,0-1.9-0.3-2.8-0.8c-0.9-0.5-1.6-1.2-2.2-2.1
		c-0.6-0.9-0.9-1.9-0.9-3.2c0-2.1,0.6-3.8,1.9-5c1.3-1.2,3.3-2.1,6.1-2.8l4.6-1.1c-0.3-0.6-0.7-1-1.4-1.4c-0.6-0.4-1.3-0.6-2-0.6
		c-1.1,0-2.1,0.2-3,0.6c-0.9,0.4-1.7,0.9-2.3,1.6l-2.2-3.7c1.6-1.1,3.2-1.8,4.7-2.2c1.5-0.4,2.9-0.6,4.3-0.5c1.6,0,3.2,0.2,4.7,0.7
		c1.5,0.5,2.6,1.3,3.6,2.5c0.9,1.2,1.4,3,1.4,5.3v7.3c0,0.9,0,1.7,0.1,2.6c0.1,0.9,0.3,1.6,0.5,2.4h-8.4c-0.1-0.2-0.2-0.6-0.3-1
		C185.6,222.6,185.6,222.2,185.6,221.8L185.6,221.8z"/>
	<path class="st0" d="M212.3,204.8l-1.7,3.6c-1.3-0.7-2.3-1-3-0.9c-1.2,0-1.7,0.5-1.7,1.5c0,0.7,0.5,1.4,1.3,2
		c0.8,0.6,1.8,1.3,3,2.1c1.1,0.8,1.8,1.6,2.2,2.4c0.4,0.8,0.6,1.5,0.6,2c0,0.6,0,0.9,0,1c0,0.7-0.3,1.5-0.9,2.5
		c-0.6,0.9-1.5,1.8-2.8,2.5c-1.2,0.7-2.8,1.1-4.6,1.1c-1.2,0-2.5-0.1-3.9-0.4c-1.4-0.3-2.6-0.8-3.7-1.5l1.7-4.1
		c0.6,0.4,1.3,0.8,2.1,1.2c0.8,0.4,1.5,0.6,2.2,0.6c1.2,0,1.8-0.6,1.9-1.7c0-0.6-0.4-1.2-1.2-1.8c-0.8-0.6-1.7-1.2-2.7-1.9
		c-1.1-0.7-1.9-1.5-2.4-2.4c-0.5-0.9-0.8-1.9-0.7-2.9c0-1.1,0.3-2,0.9-3c0.6-0.9,1.5-1.7,2.6-2.3c1.1-0.6,2.5-0.9,4-0.9
		C208.2,203.4,210.4,203.9,212.3,204.8L212.3,204.8z"/>
	<path class="st0" d="M231.2,219.7l1,3.6c-1.1,0.4-2.2,0.8-3.4,1c-1.2,0.2-2.4,0.3-3.6,0.3c-2.5,0-4.3-0.6-5.4-1.7
		c-1.1-1.1-1.6-2.7-1.6-4.8v-10.5h-2.8v-3.7h2.8V199l8.1-1.2v6.1h5.3v3.7h-5.3v7.7c0,2,0.4,3.3,1,4c0.6,0.7,1.2,1,1.8,1
		c0.4,0,0.8-0.1,1.2-0.2C230.5,220,230.9,219.8,231.2,219.7L231.2,219.7z"/>
	<polygon class="st0" points="243.8,224.1 235.8,224.1 235.8,194.4 243.8,194.4 243.8,224.1 	"/>
	<path class="st1" d="M268.4,214.9h-12.2c0.1,1.6,0.6,2.9,1.5,3.6c0.9,0.8,2,1.2,3.2,1.2c1.1,0,2.1-0.2,3-0.4c0.9-0.3,1.7-0.6,2.3-1
		l2.2,4.1c-1.9,0.9-3.7,1.5-5.3,1.8c-1.7,0.3-3.1,0.4-4.4,0.4c-2,0-3.8-0.5-5.4-1.5c-1.6-1-3-2.3-4-4c-1-1.7-1.5-3.5-1.5-5.5
		c0-1.7,0.4-3.3,1.2-4.9c0.8-1.5,2.1-2.8,3.8-3.8c1.7-1,3.8-1.5,6.3-1.5c3.3,0,5.7,1.1,7.4,3.1C268,208.6,268.7,211.4,268.4,214.9
		L268.4,214.9z M256.2,211.5h5.4c0.1-1.6-0.1-2.9-0.6-3.6c-0.5-0.8-1.2-1.1-2.2-1.1c-0.9,0-1.5,0.4-2,1.2
		C256.3,208.7,256.1,209.9,256.2,211.5L256.2,211.5z"/>
	<path class="st0" d="M306.4,218l1.7,5.3c-0.8,0.3-1.8,0.6-3,0.9c-1.2,0.3-2.5,0.4-3.8,0.4c-3.2,0-6-0.6-8.6-1.8
		c-2.6-1.2-4.6-2.9-6.2-5.1c-1.5-2.2-2.3-4.9-2.3-8c0-2.9,0.8-5.4,2.2-7.5c1.4-2.1,3.4-3.8,5.9-5c2.5-1.2,5.4-1.8,8.6-1.8
		c0.6,0,1.4,0.1,2.3,0.2c0.9,0.1,1.7,0.3,2.6,0.5c0.9,0.2,1.7,0.5,2.4,0.8l-2.1,5c-0.5-0.1-1-0.2-1.6-0.3c-0.6-0.1-1.2-0.1-1.8-0.2
		c-0.6,0-1,0-1.3,0c-1.4,0-2.7,0.3-3.9,0.9c-1.2,0.6-2.3,1.6-3,2.9c-0.8,1.3-1.2,3-1.2,5c0,2,0.4,3.6,1.2,4.9
		c0.8,1.3,1.9,2.2,3.2,2.8c1.3,0.6,2.7,0.9,4.2,0.9C303.5,218.6,305.1,218.4,306.4,218L306.4,218z"/>
	<path class="st1" d="M321.9,224.5c-2.3,0-4.3-0.5-6.1-1.4c-1.7-0.9-3.1-2.2-4-3.8c-1-1.6-1.5-3.5-1.5-5.6c0-2.2,0.6-4,1.7-5.6
		c1.1-1.5,2.5-2.7,4.3-3.5c1.7-0.8,3.6-1.2,5.6-1.2c2,0,3.9,0.4,5.7,1.2c1.8,0.8,3.2,2,4.3,3.5c1.1,1.5,1.7,3.4,1.7,5.6
		c0,2.1-0.5,4-1.5,5.6c-1,1.6-2.3,2.9-4.1,3.8C326.3,224.1,324.3,224.5,321.9,224.5L321.9,224.5z M321.9,207c-0.9,0-1.6,0.4-2,1.1
		c-0.5,0.7-0.8,1.5-1,2.6c-0.2,1-0.3,2.1-0.3,3.1c0,1.1,0.1,2.2,0.3,3.3c0.2,1.1,0.5,2,1,2.8c0.5,0.7,1.2,1.1,2.1,1.2
		c0.9,0,1.6-0.4,2.1-1.2c0.5-0.7,0.9-1.7,1.1-2.8c0.2-1.1,0.3-2.2,0.3-3.3c0-1-0.1-2.1-0.3-3.1c-0.2-1-0.6-1.9-1.1-2.6
		C323.5,207.4,322.8,207,321.9,207L321.9,207z"/>
	<polygon class="st0" points="345.4,224.1 337.3,224.1 337.3,194.4 345.4,194.4 345.4,224.1 	"/>
	<polygon class="st0" points="358.4,224.1 350.3,224.1 350.3,194.4 358.4,194.4 358.4,224.1 	"/>
	<path class="st1" d="M383.5,214.9h-12.2c0.1,1.6,0.6,2.9,1.5,3.6c0.9,0.8,2,1.2,3.2,1.2c1.1,0,2.1-0.2,3-0.4c0.9-0.3,1.7-0.6,2.3-1
		l2.2,4.1c-1.9,0.9-3.7,1.5-5.3,1.8c-1.7,0.3-3.1,0.4-4.4,0.4c-2,0-3.8-0.5-5.4-1.5c-1.6-1-3-2.3-4-4c-1-1.7-1.5-3.5-1.5-5.5
		c0-1.7,0.4-3.3,1.2-4.9c0.8-1.5,2.1-2.8,3.8-3.8c1.7-1,3.8-1.5,6.3-1.5c3.3,0,5.7,1.1,7.4,3.1C383.2,208.6,383.8,211.4,383.5,214.9
		L383.5,214.9z M371.4,211.5h5.4c0.1-1.6-0.1-2.9-0.6-3.6c-0.5-0.8-1.2-1.1-2.2-1.1c-0.9,0-1.5,0.4-2,1.2
		C371.4,208.7,371.3,209.9,371.4,211.5L371.4,211.5z"/>
	<path class="st1" d="M398.4,207.7c-1,0-1.8,0.6-2.4,1.6c-0.6,1.1-0.9,2.6-0.9,4.6c0,2,0.3,3.5,0.9,4.7c0.6,1.2,1.4,1.8,2.5,1.8
		c0.7,0,1.3-0.3,1.8-0.9c0.5-0.6,0.8-1.4,1.1-2.3c0.2-1,0.4-2,0.4-3.1c0-1.9-0.3-3.4-0.8-4.6C400.4,208.3,399.6,207.7,398.4,207.7
		L398.4,207.7z M409.9,203.9v16.7c0,3.6-0.6,6.4-1.8,8.4c-1.2,2-2.7,3.3-4.6,4.1c-1.9,0.8-4.1,1.1-6.4,1.1c-1.6,0-3.1-0.2-4.6-0.5
		c-1.5-0.3-2.9-0.7-4.2-1.2l1.2-4.7c0.7,0.4,1.5,0.8,2.7,1.1c1.1,0.3,2.4,0.5,3.9,0.5c0.9,0,1.8-0.2,2.7-0.5
		c0.9-0.4,1.6-0.9,2.2-1.7c0.6-0.8,0.9-1.8,0.9-3v-2.5c-0.6,0.7-1.5,1.3-2.5,2c-1,0.6-2.2,1-3.7,1c-2.1,0-3.8-0.6-5.2-1.6
		c-1.3-1.1-2.3-2.4-2.9-4c-0.6-1.6-0.9-3.4-0.9-5.1c0-1.4,0.3-2.9,0.9-4.5c0.6-1.6,1.6-2.9,3-4.1c1.4-1.1,3.2-1.7,5.4-1.8
		c1.3,0,2.4,0.2,3.4,0.7c1,0.4,1.8,1,2.4,1.8h0.1v-2H409.9L409.9,203.9z"/>
	<path class="st1" d="M434.3,214.9h-12.2c0.1,1.6,0.6,2.9,1.5,3.6c0.9,0.8,2,1.2,3.2,1.2c1.1,0,2.1-0.2,3-0.4c0.9-0.3,1.7-0.6,2.3-1
		l2.2,4.1c-1.9,0.9-3.7,1.5-5.3,1.8c-1.7,0.3-3.1,0.4-4.4,0.4c-2,0-3.8-0.5-5.4-1.5c-1.6-1-3-2.3-4-4c-1-1.7-1.5-3.5-1.5-5.5
		c0-1.7,0.4-3.3,1.2-4.9c0.8-1.5,2.1-2.8,3.8-3.8c1.7-1,3.8-1.5,6.3-1.5c3.3,0,5.7,1.1,7.4,3.1C434,208.6,434.7,211.4,434.3,214.9
		L434.3,214.9z M422.2,211.5h5.4c0.1-1.6-0.1-2.9-0.6-3.6c-0.5-0.8-1.2-1.1-2.2-1.1c-0.9,0-1.5,0.4-2,1.2
		C422.3,208.7,422.1,209.9,422.2,211.5L422.2,211.5z"/>
	<polygon class="st0" points="137.6,172 145,164.5 145,104.8 137.6,112.2 137.6,172 	"/>
	<polygon class="st0" points="348.4,172 348.4,104.8 355.8,112.4 355.8,164.2 348.4,172 	"/>
	<polygon class="st0" points="243.9,172 251.3,164.5 251.3,56.8 243.9,56.8 243.9,172 	"/>
	<polygon class="st0" points="189.4,172 196.8,164.5 196.8,67 189.4,70.8 189.4,172 	"/>
	<polygon class="st0" points="296.4,172 303.8,164.5 303.8,70.8 296.4,67 296.4,172 	"/>
	<g>
		<path class="st0" d="M175.3,49.2c-32.2,20.2-57.8,50.9-73.6,73.1c-17.1,23.9-26.5,42.9-26.9,43.7l12.7,6.3
			c0.4-0.7,37.4-74.6,95.4-111.1c29.1-18.3,58.6-24.1,87.7-17.2c46.4,11,92.6,54.2,137.3,128.2l12.1-7.3
			c-24.4-40.4-49.6-72.3-75-94.9c-23.2-20.7-47.2-34-71.1-39.7C240.9,22.5,207.7,28.8,175.3,49.2z"/>
	</g>
</g>
</svg>
